<svg width="36" height="36" viewBox="0 0 36 36" fill="none" xmlns="http://www.w3.org/2000/svg">
<rect width="36" height="36" rx="18" fill="white"/>
<path d="M21.6364 16.5H23.8182M23.8182 16.5H26M23.8182 16.5V14.25M23.8182 16.5V18.75M10 24V23.25C10 21.8576 10.5364 20.5223 11.4911 19.5377C12.4458 18.5531 13.7407 18 15.0909 18M15.0909 18C16.4411 18 17.736 18.5531 18.6907 19.5377C19.6455 20.5223 20.1818 21.8576 20.1818 23.25V24M15.0909 18C15.8624 18 16.6024 17.6839 17.1479 17.1213C17.6935 16.5587 18 15.7956 18 15C18 14.2044 17.6935 13.4413 17.1479 12.8787C16.6024 12.3161 15.8624 12 15.0909 12C14.3194 12 13.5794 12.3161 13.0339 12.8787C12.4883 13.4413 12.1818 14.2044 12.1818 15C12.1818 15.7956 12.4883 16.5587 13.0339 17.1213C13.5794 17.6839 14.3194 18 15.0909 18Z" stroke="#F8794B" stroke-linecap="round" stroke-linejoin="round"/>
</svg>
