<svg width="16" height="16" viewBox="0 0 16 16" fill="none" xmlns="http://www.w3.org/2000/svg">
<path d="M8.6667 1.35352V2.70018C11.5934 3.06018 13.6667 5.72018 13.3067 8.64685C13 11.0735 11.0934 13.0002 8.6667 13.2868V14.6202C12.3334 14.2535 15 11.0002 14.6334 7.33352C14.3334 4.16685 11.82 1.66685 8.6667 1.35352ZM7.33337 1.37352C6.03337 1.50018 4.79337 2.00018 3.78003 2.84018L4.73337 3.82685C5.48003 3.22685 6.38003 2.84018 7.33337 2.70685V1.37352ZM2.84003 3.78018C2.00699 4.79206 1.49409 6.02905 1.3667 7.33352H2.70003C2.8267 6.38685 3.20003 5.48685 3.79337 4.73352L2.84003 3.78018ZM10.3334 5.66685L7.08003 8.92018L5.6667 7.50685L4.96003 8.21352L7.08003 10.3335L11.04 6.37352L10.3334 5.66685ZM1.37337 8.66685C1.5067 9.97352 2.02003 11.2068 2.8467 12.2202L3.79337 11.2668C3.2046 10.5133 2.82927 9.61527 2.7067 8.66685H1.37337ZM4.73337 12.2468L3.78003 13.1602C4.79001 14.0018 6.02627 14.526 7.33337 14.6668V13.3335C6.38495 13.2109 5.48694 12.8356 4.73337 12.2468Z" fill="black" fill-opacity="0.72"/>
</svg>
