<svg width="36" height="36" viewBox="0 0 36 36" fill="none" xmlns="http://www.w3.org/2000/svg">
<rect width="36" height="36" rx="18" fill="white"/>
<path d="M23.6251 16.092V15.5045C23.6251 12.2803 21.1051 9.66699 18.0001 9.66699C14.8951 9.66699 12.3751 12.2803 12.3751 15.5045V16.092C12.3761 16.7933 12.1759 17.4802 11.7984 18.0712L10.8751 19.5087C10.0326 20.8212 10.6759 22.6053 12.1417 23.0203C15.972 24.105 20.0281 24.105 23.8584 23.0203C25.3242 22.6053 25.9676 20.8212 25.1251 19.5095L24.2017 18.072C23.8239 17.4811 23.6235 16.7942 23.6242 16.0928L23.6251 16.092Z" stroke="black"/>
<path d="M14.25 23.834C14.7958 25.2907 16.2683 26.334 18 26.334C19.7317 26.334 21.2042 25.2907 21.75 23.834" stroke="black" stroke-linecap="round"/>
<circle cx="24" cy="11" r="2" fill="#CA0606"/>
</svg>
