<svg width="60" height="60" viewBox="0 0 60 60" fill="none" xmlns="http://www.w3.org/2000/svg">
<rect width="60" height="60" rx="30" fill="white"/>
<path d="M26.8422 28.1025C29.6327 28.1025 31.8948 25.8405 31.8948 23.0503C31.8948 20.26 29.6327 17.998 26.8422 17.998C24.0517 17.998 21.7896 20.26 21.7896 23.0503C21.7896 25.8405 24.0517 28.1025 26.8422 28.1025Z" stroke="#669AFF"/>
<path d="M34.4213 26.8361C35.4263 26.8361 36.3902 26.4369 37.1009 25.7263C37.8115 25.0157 38.2108 24.0519 38.2108 23.047C38.2108 22.042 37.8115 21.0782 37.1009 20.3676C36.3902 19.657 35.4263 19.2578 34.4213 19.2578" stroke="#669AFF" stroke-linecap="round"/>
<path d="M26.8421 42.0009C31.7255 42.0009 35.6842 39.739 35.6842 36.9487C35.6842 34.1584 31.7255 31.8965 26.8421 31.8965C21.9588 31.8965 18 34.1584 18 36.9487C18 39.739 21.9588 42.0009 26.8421 42.0009Z" stroke="#669AFF"/>
<path d="M38.2105 33.1562C40.4261 33.6425 42 34.8727 42 36.3139C42 37.6148 40.7191 38.7427 38.8421 39.3073" stroke="#669AFF" stroke-linecap="round"/>
</svg>
