<svg width="20" height="20" viewBox="0 0 20 20" fill="none" xmlns="http://www.w3.org/2000/svg">
<path d="M7.59667 14.1667C7.21278 14.1667 6.8925 14.0383 6.63584 13.7817C6.37917 13.525 6.25056 13.2047 6.25 12.8208V3.84583C6.25 3.4625 6.37861 3.14222 6.63584 2.885C6.89306 2.62778 7.21334 2.49945 7.59667 2.5H14.0708C14.4542 2.5 14.7744 2.62834 15.0317 2.885C15.2889 3.14167 15.4172 3.46195 15.4167 3.84583V12.8208C15.4167 13.2042 15.2883 13.5242 15.0317 13.7808C14.775 14.0375 14.4544 14.1661 14.07 14.1667H7.59667ZM7.59667 13.3333H14.0708C14.1986 13.3333 14.3161 13.28 14.4233 13.1733C14.5306 13.0667 14.5839 12.9492 14.5833 12.8208V3.84583C14.5833 3.71806 14.53 3.60056 14.4233 3.49334C14.3167 3.38611 14.1989 3.33278 14.07 3.33334H7.59667C7.46834 3.33334 7.35056 3.38667 7.24334 3.49334C7.13611 3.6 7.08278 3.7175 7.08334 3.84583V12.8208C7.08334 12.9486 7.13667 13.0661 7.24334 13.1733C7.35 13.2806 7.46834 13.3339 7.59667 13.3333ZM5.09583 16.6667C4.7125 16.6667 4.39222 16.5383 4.135 16.2817C3.87778 16.025 3.74945 15.7047 3.75 15.3208V5.5125H4.58334V15.3208C4.58334 15.4486 4.63667 15.5661 4.74334 15.6733C4.85 15.7806 4.9675 15.8339 5.09583 15.8333H12.4042V16.6667H5.09583Z" fill="white" fill-opacity="0.8"/>
</svg>
