<svg width="20" height="20" viewBox="0 0 20 20" fill="none" xmlns="http://www.w3.org/2000/svg">
<path d="M6.66669 3.33268V1.66602M13.3334 3.33268V1.66602M10 18.3327C6.66085 18.3327 4.99169 18.3327 3.95419 17.2343C2.91669 16.136 2.91669 14.3677 2.91669 10.8327C2.91669 7.29768 2.91669 5.52935 3.95419 4.43102C4.99169 3.33268 6.66085 3.33268 10 3.33268C13.3392 3.33268 15.0084 3.33268 16.0459 4.43102C17.0834 5.52935 17.0834 7.29768 17.0834 10.8327C17.0834 14.3677 17.0834 16.136 16.0459 17.2343C15.0084 18.3327 13.3392 18.3327 10 18.3327Z" stroke="black" stroke-width="1.3" stroke-linecap="round" stroke-linejoin="round"/>
<path d="M11.6817 7.90885C11.6817 8.35088 11.5061 8.7748 11.1936 9.08737C10.881 9.39993 10.4571 9.57552 10.0151 9.57552C9.57303 9.57552 9.14911 9.39993 8.83655 9.08737C8.52399 8.7748 8.34839 8.35088 8.34839 7.90885C8.34839 7.46683 8.52399 7.0429 8.83655 6.73034C9.14911 6.41778 9.57303 6.24219 10.0151 6.24219C10.4571 6.24219 10.881 6.41778 11.1936 6.73034C11.5061 7.0429 11.6817 7.46683 11.6817 7.90885ZM6.71923 13.928C7.60089 12.5697 9.00173 12.0614 10.0151 12.0622C11.0284 12.063 12.3884 12.5705 13.2701 13.9289C13.3267 14.0164 13.3426 14.1239 13.2909 14.2155C13.0851 14.5814 12.4442 15.3072 11.9826 15.3564C11.4509 15.4122 10.0601 15.4205 10.0159 15.4205C9.97173 15.4205 8.53923 15.4122 8.00756 15.3564C7.54423 15.3064 6.90423 14.5814 6.69756 14.2147C6.64673 14.1239 6.66256 14.0164 6.71923 13.928Z" stroke="black" stroke-width="1.3" stroke-linecap="round" stroke-linejoin="round"/>
</svg>
