<svg width="20" height="20" viewBox="0 0 20 20" fill="none" xmlns="http://www.w3.org/2000/svg">
<path d="M16.0984 11.2513H12.8692C12.4412 11.2509 12.0305 11.4202 11.7271 11.7222C11.4237 12.0241 11.2525 12.4341 11.2509 12.8621V16.0913C11.2507 16.3039 11.2924 16.5144 11.3737 16.7109C11.4549 16.9073 11.5741 17.0858 11.7244 17.2361C11.8747 17.3864 12.0532 17.5056 12.2497 17.5869C12.4461 17.6681 12.6567 17.7099 12.8692 17.7096H16.0984C16.5263 17.7079 16.9361 17.5365 17.2379 17.2332C17.5396 16.9298 17.7089 16.5192 17.7084 16.0913V12.8621C17.7086 12.6506 17.6671 12.4412 17.5863 12.2458C17.5055 12.0503 17.3869 11.8728 17.2373 11.7232C17.0878 11.5737 16.9102 11.4551 16.7148 11.3742C16.5194 11.2934 16.3099 11.2519 16.0984 11.2521M7.13092 11.2513H3.90175C3.47391 11.2537 3.06442 11.4254 2.76275 11.7288C2.46107 12.0322 2.29174 12.4426 2.29175 12.8705V16.0996C2.29153 16.3111 2.33302 16.5206 2.41386 16.716C2.49469 16.9114 2.61327 17.089 2.76282 17.2386C2.91236 17.3881 3.08994 17.5067 3.28537 17.5875C3.4808 17.6684 3.69026 17.7099 3.90175 17.7096H7.13092C7.55882 17.7101 7.96944 17.5409 8.2728 17.2391C8.57615 16.9373 8.74748 16.5275 8.74925 16.0996V12.8705C8.74947 12.6579 8.70776 12.4473 8.62651 12.2509C8.54526 12.0545 8.42606 11.876 8.27574 11.7256C8.12542 11.5753 7.94693 11.4561 7.75048 11.3749C7.55404 11.2936 7.3435 11.2519 7.13092 11.2521M7.13092 2.29297H3.90175C3.69026 2.29275 3.4808 2.33424 3.28537 2.41508C3.08994 2.49591 2.91236 2.61449 2.76282 2.76404C2.61327 2.91358 2.49469 3.09116 2.41386 3.28659C2.33302 3.48202 2.29153 3.69148 2.29175 3.90297V7.13214C2.2913 7.56004 2.46052 7.97067 2.76231 8.27402C3.0641 8.57737 3.47385 8.7487 3.90175 8.75047H7.13092C7.3435 8.75069 7.55404 8.70898 7.75048 8.62773C7.94693 8.54648 8.12542 8.42728 8.27574 8.27696C8.42606 8.12664 8.54526 7.94815 8.62651 7.75171C8.70776 7.55526 8.74947 7.34472 8.74925 7.13214V3.90297C8.74748 3.47507 8.57615 3.06532 8.2728 2.76353C7.96944 2.46174 7.55882 2.29252 7.13092 2.29297ZM16.0984 2.29297H12.8692C12.4413 2.29252 12.0307 2.46174 11.7274 2.76353C11.424 3.06532 11.2527 3.47507 11.2509 3.90297V7.13214C11.2511 7.56128 11.4217 7.97278 11.7252 8.27623C12.0286 8.57968 12.4401 8.75025 12.8692 8.75047H16.0984C16.5263 8.7487 16.9361 8.57737 17.2379 8.27402C17.5396 7.97067 17.7089 7.56004 17.7084 7.13214V3.90297C17.7086 3.69148 17.6671 3.48202 17.5863 3.28659C17.5055 3.09116 17.3869 2.91358 17.2373 2.76404C17.0878 2.61449 16.9102 2.49591 16.7148 2.41508C16.5194 2.33424 16.3099 2.29275 16.0984 2.29297Z" stroke="white" stroke-opacity="0.8" stroke-linecap="round" stroke-linejoin="round"/>
</svg>
