<svg width="16" height="16" viewBox="0 0 16 16" fill="none" xmlns="http://www.w3.org/2000/svg">
<path d="M6.73174 4.21951H9.26832C9.26832 3.88314 9.1347 3.56054 8.89685 3.32269C8.659 3.08484 8.3364 2.95122 8.00003 2.95122C7.66366 2.95122 7.34106 3.08484 7.10321 3.32269C6.86536 3.56054 6.73174 3.88314 6.73174 4.21951ZM5.78052 4.21951C5.78052 3.92804 5.83793 3.63943 5.94947 3.37014C6.06101 3.10086 6.2245 2.85618 6.4306 2.65008C6.6367 2.44398 6.88138 2.28049 7.15066 2.16895C7.41994 2.05741 7.70856 2 8.00003 2C8.2915 2 8.58012 2.05741 8.8494 2.16895C9.11869 2.28049 9.36336 2.44398 9.56946 2.65008C9.77556 2.85618 9.93905 3.10086 10.0506 3.37014C10.1621 3.63943 10.2195 3.92804 10.2195 4.21951H13.8659C13.992 4.21951 14.113 4.26962 14.2022 4.35881C14.2914 4.44801 14.3415 4.56898 14.3415 4.69512C14.3415 4.82126 14.2914 4.94223 14.2022 5.03143C14.113 5.12062 13.992 5.17073 13.8659 5.17073H13.0288L12.2869 12.8509C12.2299 13.4394 11.9559 13.9855 11.5181 14.3829C11.0803 14.7802 10.5102 15.0002 9.91896 15H6.08111C5.48999 15.0001 4.92005 14.78 4.48239 14.3827C4.04473 13.9853 3.77074 13.4392 3.71384 12.8509L2.97125 5.17073H2.13418C2.00804 5.17073 1.88707 5.12062 1.79787 5.03143C1.70868 4.94223 1.65857 4.82126 1.65857 4.69512C1.65857 4.56898 1.70868 4.44801 1.79787 4.35881C1.88707 4.26962 2.00804 4.21951 2.13418 4.21951H5.78052ZM7.04881 7.23171C7.04881 7.10557 6.9987 6.98459 6.90951 6.8954C6.82031 6.80621 6.69934 6.7561 6.5732 6.7561C6.44706 6.7561 6.32609 6.80621 6.2369 6.8954C6.1477 6.98459 6.09759 7.10557 6.09759 7.23171V11.9878C6.09759 12.1139 6.1477 12.2349 6.2369 12.3241C6.32609 12.4133 6.44706 12.4634 6.5732 12.4634C6.69934 12.4634 6.82031 12.4133 6.90951 12.3241C6.9987 12.2349 7.04881 12.1139 7.04881 11.9878V7.23171ZM9.42686 6.7561C9.553 6.7561 9.67397 6.80621 9.76317 6.8954C9.85236 6.98459 9.90247 7.10557 9.90247 7.23171V11.9878C9.90247 12.1139 9.85236 12.2349 9.76317 12.3241C9.67397 12.4133 9.553 12.4634 9.42686 12.4634C9.30072 12.4634 9.17975 12.4133 9.09055 12.3241C9.00136 12.2349 8.95125 12.1139 8.95125 11.9878V7.23171C8.95125 7.10557 9.00136 6.98459 9.09055 6.8954C9.17975 6.80621 9.30072 6.7561 9.42686 6.7561ZM4.66062 12.7596C4.69482 13.1126 4.85926 13.4402 5.12188 13.6785C5.38449 13.9169 5.72646 14.0489 6.08111 14.0488H9.91896C10.2736 14.0489 10.6156 13.9169 10.8782 13.6785C11.1408 13.4402 11.3052 13.1126 11.3394 12.7596L12.0738 5.17073H3.92628L4.66062 12.7596Z" fill="black" fill-opacity="0.72"/>
</svg>
