<svg width="17" height="16" viewBox="0 0 17 16" fill="none" xmlns="http://www.w3.org/2000/svg">
<path d="M8.17141 14.8016C9.05507 14.8016 9.77141 14.0852 9.77141 13.2016C9.77141 12.3179 9.05507 11.6016 8.17141 11.6016C7.28776 11.6016 6.57141 12.3179 6.57141 13.2016C6.57141 14.0852 7.28776 14.8016 8.17141 14.8016Z" fill="black" fill-opacity="0.6"/>
<path d="M8.17141 10.0018C9.05507 10.0018 9.77141 9.28541 9.77141 8.40176C9.77141 7.5181 9.05507 6.80176 8.17141 6.80176C7.28776 6.80176 6.57141 7.5181 6.57141 8.40176C6.57141 9.28541 7.28776 10.0018 8.17141 10.0018Z" fill="black" fill-opacity="0.6"/>
<path d="M8.17141 5.20195C9.05507 5.20195 9.77141 4.48561 9.77141 3.60195C9.77141 2.7183 9.05507 2.00195 8.17141 2.00195C7.28776 2.00195 6.57141 2.7183 6.57141 3.60195C6.57141 4.48561 7.28776 5.20195 8.17141 5.20195Z" fill="black" fill-opacity="0.6"/>
</svg>
