<svg width="16" height="16" viewBox="0 0 16 16" fill="none" xmlns="http://www.w3.org/2000/svg">
<path d="M2.66663 14.0002H13.3333M3.77729 8.79156C3.49304 9.07645 3.33336 9.46244 3.33329 9.86489V12.0002H5.48196C5.88463 12.0002 6.27063 11.8402 6.55529 11.5549L12.8886 5.21822C13.1728 4.93329 13.3324 4.5473 13.3324 4.14489C13.3324 3.74248 13.1728 3.35649 12.8886 3.07156L12.2633 2.44489C12.1223 2.30379 11.9548 2.19187 11.7705 2.11554C11.5862 2.0392 11.3886 1.99994 11.1892 2C10.9897 2.00006 10.7921 2.03944 10.6079 2.1159C10.4236 2.19235 10.2562 2.30437 10.1153 2.44556L3.77729 8.79156Z" stroke="black" stroke-opacity="0.6" stroke-linecap="round" stroke-linejoin="round"/>
</svg>
