<svg width="20" height="20" viewBox="0 0 20 20" fill="none" xmlns="http://www.w3.org/2000/svg">
<path d="M3.3335 17.5003H16.6668M4.72183 10.9894C4.36651 11.3456 4.16692 11.8281 4.16683 12.3311V15.0003H6.85266C7.356 15.0003 7.8385 14.8003 8.19433 14.4436L16.111 6.52278C16.4662 6.16661 16.6657 5.68413 16.6657 5.18111C16.6657 4.6781 16.4662 4.19562 16.111 3.83945L15.3293 3.05611C15.153 2.87974 14.9437 2.73984 14.7133 2.64442C14.483 2.549 14.236 2.49992 13.9867 2.5C13.7373 2.50008 13.4904 2.54931 13.2601 2.64487C13.0297 2.74044 12.8205 2.88046 12.6443 3.05695L4.72183 10.9894Z" stroke="#5D5FEF" stroke-width="1.3" stroke-linecap="round" stroke-linejoin="round"/>
</svg>
