<svg width="52" height="52" viewBox="0 0 52 52" fill="none" xmlns="http://www.w3.org/2000/svg">
<rect width="52" height="52" rx="26" fill="white"/>
<path d="M22.8422 24.1025C25.6327 24.1025 27.8948 21.8405 27.8948 19.0503C27.8948 16.26 25.6327 13.998 22.8422 13.998C20.0517 13.998 17.7896 16.26 17.7896 19.0503C17.7896 21.8405 20.0517 24.1025 22.8422 24.1025Z" stroke="#6ED397"/>
<path d="M30.4213 22.8361C31.4263 22.8361 32.3902 22.4369 33.1008 21.7263C33.8115 21.0157 34.2107 20.0519 34.2107 19.047C34.2107 18.042 33.8115 17.0782 33.1008 16.3676C32.3902 15.657 31.4263 15.2578 30.4213 15.2578" stroke="#6ED397" stroke-linecap="round"/>
<path d="M22.8421 38.0009C27.7255 38.0009 31.6842 35.739 31.6842 32.9487C31.6842 30.1584 27.7255 27.8965 22.8421 27.8965C17.9587 27.8965 14 30.1584 14 32.9487C14 35.739 17.9587 38.0009 22.8421 38.0009Z" stroke="#6ED397"/>
<path d="M34.2104 29.1562C36.426 29.6425 37.9999 30.8727 37.9999 32.3139C37.9999 33.6148 36.7191 34.7427 34.842 35.3073" stroke="#6ED397" stroke-linecap="round"/>
</svg>
