<svg width="36" height="36" viewBox="0 0 36 36" fill="none" xmlns="http://www.w3.org/2000/svg">
<rect width="36" height="36" rx="18" fill="white"/>
<path d="M18 13.2185L17.5981 13.6075C17.6502 13.6618 17.7126 13.705 17.7817 13.7345C17.8507 13.764 17.925 13.7792 18 13.7792C18.075 13.7792 18.1493 13.764 18.2183 13.7345C18.2874 13.705 18.3498 13.6618 18.4019 13.6075L18 13.2185ZM16.0845 22.8098C14.9563 21.9159 13.7232 21.0429 12.7446 19.9358C11.786 18.8497 11.1163 17.5833 11.1163 15.9391H10C10 17.9334 10.826 19.4548 11.9103 20.6809C12.9745 21.8852 14.3319 22.8502 15.3931 23.6909L16.0845 22.8098ZM11.1163 15.9391C11.1163 14.3308 12.0205 12.9814 13.2551 12.4136C14.4547 11.8623 16.0666 12.0082 17.5981 13.6075L18.4019 12.8303C16.586 10.9325 14.4755 10.6191 12.7907 11.3933C11.1431 12.1511 10 13.9104 10 15.9391H11.1163ZM15.3931 23.6909C15.7749 23.9931 16.1842 24.3148 16.5987 24.5587C17.0132 24.8025 17.4865 25 18 25V23.878C17.7693 23.878 17.4984 23.7882 17.162 23.59C16.8249 23.3925 16.4759 23.1202 16.0845 22.8098L15.3931 23.6909ZM20.6069 23.6909C21.6681 22.8494 23.0255 21.8859 24.0897 20.6809C25.174 19.4541 26 17.9334 26 15.9391H24.8837C24.8837 17.5833 24.214 18.8497 23.2554 19.9358C22.2768 21.0429 21.0437 21.9159 19.9155 22.8098L20.6069 23.6909ZM26 15.9391C26 13.9104 24.8577 12.1511 23.2093 11.3933C21.5245 10.6191 19.4154 10.9325 17.5981 12.8295L18.4019 13.6075C19.9334 12.0089 21.5453 11.8623 22.7449 12.4136C23.9795 12.9814 24.8837 14.3301 24.8837 15.9391H26ZM19.9155 22.8098C19.5241 23.1202 19.1751 23.3925 18.838 23.59C18.5008 23.7874 18.2307 23.878 18 23.878V25C18.5135 25 18.9868 24.8018 19.4013 24.5587C19.8166 24.3148 20.2251 23.9931 20.6069 23.6909L19.9155 22.8098Z" fill="#FA5A7E"/>
</svg>
