<svg width="36" height="36" viewBox="0 0 36 36" fill="none" xmlns="http://www.w3.org/2000/svg">
<rect width="36" height="36" rx="18" fill="white"/>
<path d="M15.9166 16.7497C17.7576 16.7497 19.25 15.2573 19.25 13.4163C19.25 11.5754 17.7576 10.083 15.9166 10.083C14.0757 10.083 12.5833 11.5754 12.5833 13.4163C12.5833 15.2573 14.0757 16.7497 15.9166 16.7497Z" stroke="#06D4C6"/>
<path d="M20.9166 15.916C21.5797 15.916 22.2156 15.6526 22.6844 15.1838C23.1532 14.7149 23.4166 14.0791 23.4166 13.416C23.4166 12.753 23.1532 12.1171 22.6844 11.6482C22.2156 11.1794 21.5797 10.916 20.9166 10.916" stroke="#06D4C6" stroke-linecap="round"/>
<path d="M15.9166 25.9167C19.1383 25.9167 21.75 24.4243 21.75 22.5833C21.75 20.7424 19.1383 19.25 15.9166 19.25C12.695 19.25 10.0833 20.7424 10.0833 22.5833C10.0833 24.4243 12.695 25.9167 15.9166 25.9167Z" stroke="#06D4C6"/>
<path d="M23.4166 20.083C24.8783 20.4038 25.9166 21.2155 25.9166 22.1663C25.9166 23.0247 25.0716 23.7688 23.8333 24.1413" stroke="#06D4C6" stroke-linecap="round"/>
</svg>
