<svg width="40" height="40" viewBox="0 0 40 40" fill="none" xmlns="http://www.w3.org/2000/svg">
<rect width="40" height="40" rx="20" fill="white"/>
<path d="M17.8947 18.7363C19.7551 18.7363 21.2631 17.2283 21.2631 15.3681C21.2631 13.508 19.7551 12 17.8947 12C16.0344 12 14.5263 13.508 14.5263 15.3681C14.5263 17.2283 16.0344 18.7363 17.8947 18.7363Z" stroke="#51B8B1"/>
<path d="M22.9474 17.893C23.6174 17.893 24.26 17.6269 24.7338 17.1532C25.2076 16.6794 25.4737 16.0369 25.4737 15.3669C25.4737 14.697 25.2076 14.0544 24.7338 13.5807C24.26 13.107 23.6174 12.8408 22.9474 12.8408" stroke="#51B8B1" stroke-linecap="round"/>
<path d="M17.8947 28C21.1503 28 23.7895 26.492 23.7895 24.6318C23.7895 22.7716 21.1503 21.2637 17.8947 21.2637C14.6392 21.2637 12 22.7716 12 24.6318C12 26.492 14.6392 28 17.8947 28Z" stroke="#51B8B1"/>
<path d="M25.4737 22.1045C26.9508 22.4287 28 23.2488 28 24.2096C28 25.0769 27.1461 25.8288 25.8948 26.2052" stroke="#51B8B1" stroke-linecap="round"/>
</svg>
