<svg width="20" height="20" viewBox="0 0 20 20" fill="none" xmlns="http://www.w3.org/2000/svg">
<path d="M5.33331 3.96627C6.57524 2.74918 8.24731 2.07138 9.98617 2.08016C11.725 2.08894 13.3902 2.7836 14.6197 4.01317C15.8493 5.24275 16.544 6.90789 16.5528 8.64674C16.5615 10.3856 15.8837 12.0577 14.6666 13.2996L11.1783 16.7879C10.8658 17.1004 10.4419 17.2759 9.99998 17.2759C9.55804 17.2759 9.13419 17.1004 8.82164 16.7879L5.33331 13.2996C4.09571 12.0619 3.40045 10.3832 3.40045 8.63294C3.40045 6.88263 4.09571 5.20399 5.33331 3.96627Z" stroke="black" stroke-width="1.5" stroke-linejoin="round"/>
<path d="M10 11.1328C11.3807 11.1328 12.5 10.0135 12.5 8.63281C12.5 7.2521 11.3807 6.13281 10 6.13281C8.61929 6.13281 7.5 7.2521 7.5 8.63281C7.5 10.0135 8.61929 11.1328 10 11.1328Z" stroke="black" stroke-width="1.5" stroke-linecap="round" stroke-linejoin="round"/>
</svg>
