<svg width="20" height="20" viewBox="0 0 20 20" fill="none" xmlns="http://www.w3.org/2000/svg">
<path d="M16.6666 10.0007H8.74989M14.9999 12.5007L17.4999 10.0007L14.9999 7.50065M10.8332 5.83398V5.00065C10.8332 4.55862 10.6576 4.1347 10.3451 3.82214C10.0325 3.50958 9.60858 3.33398 9.16656 3.33398H4.99989C4.55786 3.33398 4.13394 3.50958 3.82138 3.82214C3.50882 4.1347 3.33322 4.55862 3.33322 5.00065V15.0007C3.33322 15.4427 3.50882 15.8666 3.82138 16.1792C4.13394 16.4917 4.55786 16.6673 4.99989 16.6673H9.16656C9.60858 16.6673 10.0325 16.4917 10.3451 16.1792C10.6576 15.8666 10.8332 15.4427 10.8332 15.0007V14.1673" stroke="black" stroke-width="1.3" stroke-linecap="round" stroke-linejoin="round"/>
</svg>
