<svg width="20" height="20" viewBox="0 0 20 20" fill="none" xmlns="http://www.w3.org/2000/svg">
<path d="M9.16659 6.66536H13.3333M13.3333 9.9987H9.16659M13.3333 13.332H9.16659M4.99992 16.6654H14.9999C15.4419 16.6654 15.8659 16.4898 16.1784 16.1772C16.491 15.8646 16.6666 15.4407 16.6666 14.9987V4.9987C16.6666 4.55667 16.491 4.13275 16.1784 3.82019C15.8659 3.50763 15.4419 3.33203 14.9999 3.33203H4.99992C4.55789 3.33203 4.13397 3.50763 3.82141 3.82019C3.50885 4.13275 3.33325 4.55667 3.33325 4.9987V14.9987C3.33325 15.4407 3.50885 15.8646 3.82141 16.1772C4.13397 16.4898 4.55789 16.6654 4.99992 16.6654Z" stroke="white" stroke-opacity="0.8" stroke-linecap="round" stroke-linejoin="round"/>
</svg>
