<svg width="40" height="40" viewBox="0 0 40 40" fill="none" xmlns="http://www.w3.org/2000/svg">
<rect width="40" height="40" rx="20" fill="white"/>
<path d="M20.8 28H15.672C14.436 28 13.4528 27.3984 12.5704 26.5576C10.7624 24.8352 13.7304 23.4592 14.8624 22.7856C16.7714 21.658 19.0443 21.3174 21.2 21.836M23.24 23.24L27.16 27.16M23.6 15.6C23.6 16.5548 23.2207 17.4705 22.5456 18.1456C21.8704 18.8207 20.9548 19.2 20 19.2C19.0452 19.2 18.1295 18.8207 17.4544 18.1456C16.7793 17.4705 16.4 16.5548 16.4 15.6C16.4 14.6452 16.7793 13.7295 17.4544 13.0544C18.1295 12.3793 19.0452 12 20 12C20.9548 12 21.8704 12.3793 22.5456 13.0544C23.2207 13.7295 23.6 14.6452 23.6 15.6ZM28 25.2C28 24.4574 27.705 23.7452 27.1799 23.2201C26.6548 22.695 25.9426 22.4 25.2 22.4C24.4574 22.4 23.7452 22.695 23.2201 23.2201C22.695 23.7452 22.4 24.4574 22.4 25.2C22.4 25.9426 22.695 26.6548 23.2201 27.1799C23.7452 27.705 24.4574 28 25.2 28C25.9426 28 26.6548 27.705 27.1799 27.1799C27.705 26.6548 28 25.9426 28 25.2Z" stroke="#CB7B8D" stroke-linecap="round" stroke-linejoin="round"/>
</svg>
