<svg width="20" height="20" viewBox="0 0 20 20" fill="none" xmlns="http://www.w3.org/2000/svg">
<path d="M12.0758 12.9167H12.0833M7.91668 12.9167H7.92418M3.55668 15.7042C3.74418 17.0959 4.89668 18.1867 6.30001 18.2509C7.48001 18.305 8.67918 18.3334 10 18.3334C11.3208 18.3334 12.52 18.305 13.7 18.25C15.1033 18.1867 16.2558 17.0959 16.4433 15.7042C16.5658 14.7959 16.6667 13.865 16.6667 12.9167C16.6667 11.9684 16.5658 11.0375 16.4433 10.1292C16.2558 8.73755 15.1033 7.64671 13.7 7.58255C12.4675 7.52622 11.2338 7.49871 10 7.50005C8.67918 7.50005 7.48001 7.52838 6.30001 7.58338C4.89668 7.64671 3.74418 8.73755 3.55668 10.1292C3.43334 11.0375 3.33334 11.9684 3.33334 12.9167C3.33334 13.865 3.43418 14.7959 3.55668 15.7042Z" stroke="black" stroke-width="1.3" stroke-linecap="round" stroke-linejoin="round"/>
<path d="M6.25 7.49935V5.41602C6.25 4.42145 6.64509 3.46763 7.34835 2.76437C8.05161 2.0611 9.00544 1.66602 10 1.66602C10.9946 1.66602 11.9484 2.0611 12.6516 2.76437C13.3549 3.46763 13.75 4.42145 13.75 5.41602V7.49935" stroke="black" stroke-width="1.3" stroke-linecap="round" stroke-linejoin="round"/>
</svg>
