<svg width="52" height="52" viewBox="0 0 52 52" fill="none" xmlns="http://www.w3.org/2000/svg">
<rect width="52" height="52" rx="26" fill="white"/>
<path d="M22.8422 24.1025C25.6327 24.1025 27.8949 21.8405 27.8949 19.0503C27.8949 16.26 25.6327 13.998 22.8422 13.998C20.0518 13.998 17.7896 16.26 17.7896 19.0503C17.7896 21.8405 20.0518 24.1025 22.8422 24.1025Z" stroke="#DD83FF"/>
<path d="M30.4213 22.8361C31.4264 22.8361 32.3902 22.4369 33.1009 21.7263C33.8116 21.0157 34.2108 20.0519 34.2108 19.047C34.2108 18.042 33.8116 17.0782 33.1009 16.3676C32.3902 15.657 31.4264 15.2578 30.4213 15.2578" stroke="#DD83FF" stroke-linecap="round"/>
<path d="M22.8422 38.0009C27.7255 38.0009 31.6843 35.739 31.6843 32.9487C31.6843 30.1584 27.7255 27.8965 22.8422 27.8965C17.9588 27.8965 14.0001 30.1584 14.0001 32.9487C14.0001 35.739 17.9588 38.0009 22.8422 38.0009Z" stroke="#DD83FF"/>
<path d="M34.2105 29.1562C36.4261 29.6425 38 30.8727 38 32.3139C38 33.6148 36.7191 34.7427 34.8421 35.3073" stroke="#DD83FF" stroke-linecap="round"/>
</svg>
