<svg width="20" height="20" viewBox="0 0 20 20" fill="none" xmlns="http://www.w3.org/2000/svg">
<path d="M9.16663 10.8327H4.99996C4.76385 10.8327 4.56607 10.7527 4.40663 10.5927C4.24718 10.4327 4.16718 10.2349 4.16663 9.99935C4.16607 9.7638 4.24607 9.56602 4.40663 9.40602C4.56718 9.24602 4.76496 9.16602 4.99996 9.16602H9.16663V4.99935C9.16663 4.76324 9.24663 4.56546 9.40663 4.40602C9.56663 4.24657 9.76441 4.16657 9.99996 4.16602C10.2355 4.16546 10.4336 4.24546 10.5941 4.40602C10.7547 4.56657 10.8344 4.76435 10.8333 4.99935V9.16602H15C15.2361 9.16602 15.4341 9.24602 15.5941 9.40602C15.7541 9.56602 15.8339 9.7638 15.8333 9.99935C15.8327 10.2349 15.7527 10.433 15.5933 10.5935C15.4339 10.7541 15.2361 10.8338 15 10.8327H10.8333V14.9994C10.8333 15.2355 10.7533 15.4335 10.5933 15.5935C10.4333 15.7535 10.2355 15.8332 9.99996 15.8327C9.76441 15.8321 9.56663 15.7521 9.40663 15.5927C9.24663 15.4332 9.16663 15.2355 9.16663 14.9994V10.8327Z" fill="white"/>
</svg>
