<svg width="16" height="16" viewBox="0 0 16 16" fill="none" xmlns="http://www.w3.org/2000/svg">
<path d="M10 8C10 8.53043 9.78929 9.03914 9.41421 9.41421C9.03914 9.78929 8.53043 10 8 10C7.46957 10 6.96086 9.78929 6.58579 9.41421C6.21071 9.03914 6 8.53043 6 8C6 7.46957 6.21071 6.96086 6.58579 6.58579C6.96086 6.21071 7.46957 6 8 6C8.53043 6 9.03914 6.21071 9.41421 6.58579C9.78929 6.96086 10 7.46957 10 8Z" stroke="black" stroke-linecap="round" stroke-linejoin="round"/>
<path d="M1.33337 8.00065C2.40004 5.26932 4.89071 3.33398 8.00004 3.33398C11.1094 3.33398 13.6 5.26932 14.6667 8.00065C13.6 10.732 11.1094 12.6673 8.00004 12.6673C4.89071 12.6673 2.40004 10.732 1.33337 8.00065Z" stroke="black" stroke-linecap="round" stroke-linejoin="round"/>
</svg>
