<svg width="40" height="40" viewBox="0 0 40 40" fill="none" xmlns="http://www.w3.org/2000/svg">
<rect width="40" height="40" rx="20" fill="white"/>
<path d="M20 24.423C20.1747 24.423 20.321 24.364 20.439 24.246C20.5563 24.128 20.615 23.982 20.615 23.808C20.615 23.634 20.556 23.4877 20.438 23.369C20.32 23.2503 20.174 23.1913 20 23.192C19.826 23.1927 19.68 23.2517 19.562 23.369C19.444 23.4863 19.385 23.6327 19.385 23.808C19.385 23.9833 19.444 24.1293 19.562 24.246C19.68 24.3627 19.826 24.4217 20 24.423ZM20 21.462C20.1427 21.462 20.2617 21.414 20.357 21.318C20.4523 21.222 20.5 21.103 20.5 20.961V15.885C20.5 15.743 20.452 15.624 20.356 15.528C20.26 15.432 20.141 15.3843 19.999 15.385C19.857 15.3857 19.7383 15.4333 19.643 15.528C19.5477 15.6227 19.5 15.7417 19.5 15.885V20.962C19.5 21.1033 19.548 21.222 19.644 21.318C19.74 21.414 19.859 21.462 20.001 21.462M17.344 28C17.1233 28 16.9127 27.9567 16.712 27.87C16.5113 27.7833 16.3387 27.667 16.194 27.521L12.48 23.806C12.3353 23.6613 12.2193 23.4887 12.132 23.288C12.0447 23.0873 12.0007 22.8767 12 22.656V17.344C12 17.1233 12.0433 16.9127 12.13 16.712C12.2167 16.5113 12.333 16.3387 12.479 16.194L16.194 12.48C16.3387 12.3347 16.5113 12.2187 16.712 12.132C16.9127 12.0453 17.1233 12.0013 17.344 12H22.656C22.8767 12 23.0873 12.0433 23.288 12.13C23.4887 12.2167 23.6613 12.333 23.806 12.479L27.521 16.194C27.6663 16.3387 27.7823 16.5113 27.869 16.712C27.9557 16.9127 27.9993 17.1233 28 17.344V22.656C28 22.8767 27.9567 23.0873 27.87 23.288C27.7833 23.4887 27.667 23.6613 27.521 23.806L23.806 27.521C23.6613 27.6663 23.4887 27.7823 23.288 27.869C23.0873 27.9557 22.8767 27.9993 22.656 28H17.344ZM17.1 27H22.9L27 22.9V17.1L22.9 13H17.1L13 17.1V22.9L17.1 27Z" fill="#948DC4"/>
</svg>
