<svg width="36" height="36" viewBox="0 0 36 36" fill="none" xmlns="http://www.w3.org/2000/svg">
<rect width="36" height="36" rx="18" fill="white"/>
<path d="M18 22.423C18.1747 22.423 18.321 22.364 18.439 22.246C18.5563 22.128 18.615 21.982 18.615 21.808C18.615 21.634 18.556 21.4877 18.438 21.369C18.32 21.2503 18.174 21.1913 18 21.192C17.826 21.1927 17.68 21.2517 17.562 21.369C17.444 21.4863 17.385 21.6327 17.385 21.808C17.385 21.9833 17.444 22.1293 17.562 22.246C17.68 22.3627 17.826 22.4217 18 22.423ZM18 19.462C18.1427 19.462 18.2617 19.414 18.357 19.318C18.4523 19.222 18.5 19.103 18.5 18.961V13.885C18.5 13.743 18.452 13.624 18.356 13.528C18.26 13.432 18.141 13.3843 17.999 13.385C17.857 13.3857 17.7383 13.4333 17.643 13.528C17.5477 13.6227 17.5 13.7417 17.5 13.885V18.962C17.5 19.1033 17.548 19.222 17.644 19.318C17.74 19.414 17.859 19.462 18.001 19.462M15.344 26C15.1233 26 14.9127 25.9567 14.712 25.87C14.5113 25.7833 14.3387 25.667 14.194 25.521L10.48 21.806C10.3353 21.6613 10.2193 21.4887 10.132 21.288C10.0447 21.0873 10.0007 20.8767 10 20.656V15.344C10 15.1233 10.0433 14.9127 10.13 14.712C10.2167 14.5113 10.333 14.3387 10.479 14.194L14.194 10.48C14.3387 10.3347 14.5113 10.2187 14.712 10.132C14.9127 10.0453 15.1233 10.0013 15.344 10H20.656C20.8767 10 21.0873 10.0433 21.288 10.13C21.4887 10.2167 21.6613 10.333 21.806 10.479L25.521 14.194C25.6663 14.3387 25.7823 14.5113 25.869 14.712C25.9557 14.9127 25.9993 15.1233 26 15.344V20.656C26 20.8767 25.9567 21.0873 25.87 21.288C25.7833 21.4887 25.667 21.6613 25.521 21.806L21.806 25.521C21.6613 25.6663 21.4887 25.7823 21.288 25.869C21.0873 25.9557 20.8767 25.9993 20.656 26H15.344ZM15.1 25H20.9L25 20.9V15.1L20.9 11H15.1L11 15.1V20.9L15.1 25Z" fill="#8676FE"/>
</svg>
