<svg width="36" height="36" viewBox="0 0 36 36" fill="none" xmlns="http://www.w3.org/2000/svg">
<rect width="36" height="36" rx="18" fill="white"/>
<path d="M24.572 18.4428L25.702 19.449C25.9107 19.6231 26.0501 19.8662 26.0951 20.1343C26.14 20.4023 26.0875 20.6776 25.947 20.9103L24.5845 23.2378C24.4788 23.4159 24.3279 23.563 24.147 23.664C23.9641 23.7652 23.7586 23.819 23.5495 23.8203C23.4198 23.8211 23.2908 23.8017 23.167 23.7628L21.7208 23.2853C21.4674 23.4478 21.2041 23.5932 20.9308 23.7215L20.627 25.1878C20.5708 25.4575 20.4206 25.6985 20.2033 25.8678C19.9831 26.0401 19.7103 26.131 19.4308 26.1253H16.6095C16.33 26.131 16.0571 26.0401 15.837 25.8678C15.6201 25.6983 15.4704 25.4573 15.4145 25.1878L15.1095 23.7215C14.8398 23.5915 14.578 23.4454 14.3258 23.284L12.8745 23.7628C12.7508 23.8017 12.6217 23.8211 12.492 23.8203C12.2833 23.8188 12.0784 23.765 11.8958 23.664C11.7151 23.5633 11.5641 23.4167 11.4583 23.239L10.047 20.9103C9.9003 20.6755 9.84424 20.3953 9.88935 20.1221C9.93445 19.849 10.0776 19.6017 10.292 19.4265L11.4208 18.0003V17.5578L10.2908 16.5515C10.0821 16.3774 9.94267 16.1343 9.89773 15.8662C9.85279 15.5982 9.9053 15.3229 10.0458 15.0903L11.457 12.7628C11.5627 12.5846 11.7137 12.4375 11.8945 12.3365C12.0771 12.2355 12.2821 12.1818 12.4908 12.1803C12.6193 12.1722 12.7483 12.184 12.8733 12.2153L14.2958 12.7153C14.5499 12.5528 14.8133 12.4073 15.0858 12.279L15.3908 10.8128C15.4466 10.5432 15.5964 10.3023 15.8133 10.1328C16.0334 9.96044 16.3063 9.86948 16.5858 9.87526H19.3833C19.6628 9.86948 19.9357 9.96044 20.1558 10.1328C20.3745 10.304 20.5245 10.5453 20.5783 10.8128L20.8833 12.279C21.1541 12.4082 21.4154 12.554 21.667 12.7165L23.1195 12.239C23.2807 12.1866 23.4511 12.1682 23.6197 12.1849C23.7884 12.2017 23.9518 12.2533 24.0995 12.3365C24.2808 12.439 24.4308 12.5865 24.537 12.7615L25.947 15.0903C26.0957 15.323 26.1546 15.602 26.1128 15.875C26.0709 16.148 25.9311 16.3965 25.7195 16.574L24.572 17.5515V18.4428Z" stroke="black"/>
<path d="M21.1245 18C21.1245 18.8288 20.7953 19.6237 20.2092 20.2097C19.6232 20.7958 18.8283 21.125 17.9995 21.125C17.1707 21.125 16.3759 20.7958 15.7898 20.2097C15.2038 19.6237 14.8745 18.8288 14.8745 18C14.8745 17.1712 15.2038 16.3763 15.7898 15.7903C16.3759 15.2042 17.1707 14.875 17.9995 14.875C18.8283 14.875 19.6232 15.2042 20.2092 15.7903C20.7953 16.3763 21.1245 17.1712 21.1245 18Z" stroke="black"/>
</svg>
