<svg width="20" height="20" viewBox="0 0 20 20" fill="none" xmlns="http://www.w3.org/2000/svg">
<path d="M1.66675 9.9987C1.66675 6.8562 1.66675 5.28453 2.64341 4.3087C3.62008 3.33286 5.19091 3.33203 8.33341 3.33203H11.6667C14.8092 3.33203 16.3809 3.33203 17.3567 4.3087C18.3326 5.28536 18.3334 6.8562 18.3334 9.9987C18.3334 13.1412 18.3334 14.7129 17.3567 15.6887C16.3801 16.6645 14.8092 16.6654 11.6667 16.6654H8.33341C5.19091 16.6654 3.61925 16.6654 2.64341 15.6887C1.66758 14.712 1.66675 13.1412 1.66675 9.9987Z" stroke="white" stroke-opacity="0.8"/>
<path d="M8.33341 13.332H5.00008M11.6667 13.332H10.4167M1.66675 8.33203H18.3334" stroke="white" stroke-opacity="0.8" stroke-linecap="round"/>
</svg>
