<svg width="20" height="20" viewBox="0 0 20 20" fill="none" xmlns="http://www.w3.org/2000/svg">
<path d="M17.5 9.99935V12.4993C17.5 13.8254 16.9732 15.0972 16.0355 16.0349C15.0979 16.9726 13.8261 17.4993 12.5 17.4993H7.5C6.17392 17.4993 4.90215 16.9726 3.96447 16.0349C3.02678 15.0972 2.5 13.8254 2.5 12.4993V7.49935C2.5 6.17327 3.02678 4.9015 3.96447 3.96382C4.90215 3.02613 6.17392 2.49935 7.5 2.49935H10M15.8333 6.66602C16.4964 6.66602 17.1323 6.40262 17.6011 5.93378C18.0699 5.46494 18.3333 4.82906 18.3333 4.16602C18.3333 3.50297 18.0699 2.86709 17.6011 2.39825C17.1323 1.92941 16.4964 1.66602 15.8333 1.66602C15.1703 1.66602 14.5344 1.92941 14.0656 2.39825C13.5967 2.86709 13.3333 3.50297 13.3333 4.16602C13.3333 4.82906 13.5967 5.46494 14.0656 5.93378C14.5344 6.40262 15.1703 6.66602 15.8333 6.66602Z" stroke="black" stroke-width="1.25" stroke-linecap="round" stroke-linejoin="round"/>
</svg>
