<svg width="41" height="41" viewBox="0 0 41 41" fill="none" xmlns="http://www.w3.org/2000/svg">
<path d="M35.9163 22.1673V14.6673C35.9163 12.4572 35.0384 10.3376 33.4756 8.77476C31.9128 7.21196 29.7931 6.33398 27.583 6.33398H13.4163C11.2062 6.33398 9.08659 7.21196 7.52378 8.77476C5.96098 10.3376 5.08301 12.4572 5.08301 14.6673V26.334C5.08301 27.4283 5.29856 28.512 5.71735 29.523C6.13613 30.5341 6.74996 31.4527 7.52378 32.2265C9.08659 33.7893 11.2062 34.6673 13.4163 34.6673H23.8497" stroke="#5D5FEF" stroke-width="2" stroke-linecap="round" stroke-linejoin="round"/>
<path d="M5.5166 28.8347L10.0833 23.5014C10.683 22.9057 11.4701 22.5356 12.3114 22.4536C13.1527 22.3715 13.9965 22.5827 14.6999 23.0514C15.4034 23.52 16.2472 23.7312 17.0885 23.6492C17.9298 23.5671 18.7169 23.197 19.3166 22.6014L23.1999 18.718C24.3158 17.5984 25.7931 16.9117 27.3683 16.7804C28.9436 16.6492 30.5142 17.0819 31.7999 18.0014L35.9166 21.1847M13.8499 17.4514C14.2133 17.4492 14.5726 17.3754 14.9074 17.2344C15.2423 17.0933 15.546 16.8877 15.8014 16.6292C16.0567 16.3708 16.2587 16.0646 16.3957 15.728C16.5327 15.3915 16.6021 15.0313 16.5999 14.668C16.5977 14.3047 16.524 13.9454 16.383 13.6105C16.2419 13.2757 16.0363 12.9719 15.7778 12.7166C15.5194 12.4612 15.2131 12.2593 14.8766 12.1222C14.5401 11.9852 14.1799 11.9158 13.8166 11.918C13.0828 11.9224 12.3809 12.2182 11.8652 12.7401C11.3494 13.2621 11.0622 13.9676 11.0666 14.7014C11.071 15.4351 11.3667 16.1371 11.8887 16.6528C12.4107 17.1685 13.1162 17.4558 13.8499 17.4514Z" stroke="#5D5FEF" stroke-width="2" stroke-linecap="round" stroke-linejoin="round"/>
<path d="M31.6777 25.5V33.8333" stroke="#5D5FEF" stroke-width="2" stroke-miterlimit="10" stroke-linecap="round"/>
<path d="M35.4998 29.008L32.2214 25.7297C32.1502 25.6581 32.0655 25.6013 31.9723 25.5626C31.8791 25.5239 31.7791 25.5039 31.6781 25.5039C31.5771 25.5039 31.4772 25.5239 31.3839 25.5626C31.2907 25.6013 31.206 25.6581 31.1348 25.7297L27.8564 29.008" stroke="#5D5FEF" stroke-width="2" stroke-linecap="round" stroke-linejoin="round"/>
</svg>
