<svg width="20" height="20" viewBox="0 0 20 20" fill="none" xmlns="http://www.w3.org/2000/svg">
<path d="M9.325 1.13301L3.49167 3.72467C2.89167 3.99134 2.5 4.59134 2.5 5.24967V9.16634C2.5 13.7913 5.7 18.1163 10 19.1663C14.3 18.1163 17.5 13.7913 17.5 9.16634V5.24967C17.5 4.59134 17.1083 3.99134 16.5083 3.72467L10.675 1.13301C10.25 0.941341 9.75 0.941341 9.325 1.13301ZM7.74167 13.5747L5.58333 11.4163C5.50618 11.3392 5.44498 11.2476 5.40323 11.1468C5.36147 11.046 5.33998 10.9379 5.33998 10.8288C5.33998 10.7197 5.36147 10.6117 5.40323 10.5109C5.44498 10.4101 5.50618 10.3185 5.58333 10.2413C5.66048 10.1642 5.75208 10.103 5.85288 10.0612C5.95368 10.0195 6.06172 9.99799 6.17083 9.99799C6.27994 9.99799 6.38798 10.0195 6.48879 10.0612C6.58959 10.103 6.68118 10.1642 6.75833 10.2413L8.33333 11.808L13.2333 6.90801C13.3105 6.83086 13.4021 6.76966 13.5029 6.7279C13.6037 6.68615 13.7117 6.66466 13.8208 6.66466C13.9299 6.66466 14.038 6.68615 14.1388 6.7279C14.2396 6.76966 14.3312 6.83086 14.4083 6.90801C14.4855 6.98516 14.5467 7.07675 14.5884 7.17755C14.6302 7.27836 14.6517 7.3864 14.6517 7.49551C14.6517 7.60462 14.6302 7.71266 14.5884 7.81346C14.5467 7.91426 14.4855 8.00586 14.4083 8.08301L8.91667 13.5747C8.83957 13.6519 8.748 13.7132 8.64719 13.755C8.54638 13.7969 8.43831 13.8184 8.32917 13.8184C8.22003 13.8184 8.11196 13.7969 8.01115 13.755C7.91034 13.7132 7.81876 13.6519 7.74167 13.5747Z" fill="#45BF74"/>
</svg>
