<svg width="16" height="16" viewBox="0 0 16 16" fill="none" xmlns="http://www.w3.org/2000/svg">
<path d="M3.86668 2C2.85565 2 2.02844 2.82721 2.02844 3.83824V11.6507C2.02844 12.6618 2.85565 13.489 3.86668 13.489H8.92182C9.10565 13.489 9.24352 13.4458 9.38138 13.4458C8.738 13.3079 8.18929 12.9835 7.72973 12.5699H3.86668C3.36116 12.5699 2.94756 12.1562 2.94756 11.6507V3.83824C2.94756 3.33272 3.36116 2.91912 3.86668 2.91912H6.76787C7.08956 3.01103 7.08359 3.42463 7.08359 3.83824V5.21691C7.08359 5.49265 7.26741 5.67647 7.54315 5.67647H8.92182C9.38138 5.67647 9.84094 5.67647 9.84094 6.13603V6.59559H10.0707C10.3005 6.59559 10.5303 6.63603 10.7601 6.68199V5.67647C10.7601 5.17096 10.306 4.70588 9.52477 3.92417C9.3869 3.83226 9.28947 3.70037 9.1516 3.60846C9.05969 3.47059 8.92734 3.3727 8.83543 3.23483C8.05464 2.45404 7.5891 2 7.08359 2H3.86668ZM10.0707 7.51471C8.69205 7.51471 7.54315 8.6636 7.54315 10.0423C7.54315 11.421 8.69205 12.5699 10.0707 12.5699C10.6557 12.5699 11.1897 12.3534 11.6217 12.0097L11.7656 12.1535C11.7081 12.2387 11.6823 12.3415 11.6928 12.4438C11.7033 12.5461 11.7494 12.6414 11.823 12.7132L12.9719 13.8621C13.1557 14.046 13.42 14.046 13.6038 13.8621L13.8336 13.6324C14.0174 13.4485 14.0174 13.17 13.8336 12.9862L12.6847 11.8373C12.6173 11.7668 12.528 11.7213 12.4314 11.7083C12.3348 11.6953 12.2366 11.7155 12.153 11.7656L12.0238 11.6218C12.3791 11.1861 12.5983 10.6383 12.5983 10.0423C12.5983 8.6636 11.4494 7.51471 10.0707 7.51471ZM10.0707 8.20404C11.0818 8.20404 11.909 9.03125 11.909 10.0423C11.909 11.0533 11.0818 11.8805 10.0707 11.8805C9.05969 11.8805 8.23249 11.0533 8.23249 10.0423C8.23249 9.03125 9.05969 8.20404 10.0707 8.20404Z" fill="black" fill-opacity="0.72"/>
</svg>
