<svg width="16" height="16" viewBox="0 0 16 16" fill="none" xmlns="http://www.w3.org/2000/svg">
<path d="M2.67402 13.9453H13.3259C13.4989 13.9453 13.6689 13.9004 13.8194 13.815C13.9698 13.7296 14.0956 13.6066 14.1843 13.458C14.273 13.3095 14.3216 13.1405 14.3255 12.9675C14.3293 12.7946 14.2882 12.6236 14.2062 12.4712L8.88058 2.58062C8.50277 1.87937 7.49714 1.87937 7.11933 2.58062L1.7937 12.4712C1.71169 12.6236 1.6706 12.7946 1.67444 12.9675C1.67829 13.1405 1.72694 13.3095 1.81564 13.458C1.90435 13.6066 2.03007 13.7296 2.18052 13.815C2.33097 13.9004 2.50101 13.9453 2.67402 13.9453Z" stroke="black" stroke-opacity="0.72" stroke-linecap="round" stroke-linejoin="round"/>
<path d="M7.82068 6.10587L8.00005 9.91837L8.17912 6.10743C8.18022 6.08307 8.17635 6.05874 8.16773 6.03592C8.15911 6.01311 8.14594 5.99229 8.129 5.97474C8.11207 5.95719 8.09173 5.94328 8.06924 5.93385C8.04674 5.92443 8.02256 5.91969 7.99818 5.91993C7.97422 5.92016 7.95055 5.9252 7.92856 5.93473C7.90658 5.94426 7.88673 5.95811 7.87018 5.97544C7.85364 5.99277 7.84073 6.01324 7.83223 6.03564C7.82373 6.05804 7.8198 6.08192 7.82068 6.10587Z" stroke="black" stroke-opacity="0.72" stroke-linecap="round" stroke-linejoin="round"/>
<path d="M8 12.4141C7.87639 12.4141 7.75555 12.3774 7.65277 12.3087C7.54999 12.2401 7.46988 12.1424 7.42258 12.0282C7.37527 11.914 7.36289 11.7884 7.38701 11.6671C7.41113 11.5459 7.47065 11.4345 7.55806 11.3471C7.64547 11.2597 7.75683 11.2002 7.87807 11.1761C7.99931 11.152 8.12497 11.1643 8.23918 11.2116C8.35338 11.2589 8.45099 11.339 8.51967 11.4418C8.58834 11.5446 8.625 11.6654 8.625 11.7891C8.625 11.9548 8.55915 12.1138 8.44194 12.231C8.32473 12.3482 8.16576 12.4141 8 12.4141Z" fill="black" fill-opacity="0.72"/>
</svg>
