<svg width="24" height="24" viewBox="0 0 24 24" fill="none" xmlns="http://www.w3.org/2000/svg">
<path d="M17.4937 11.2516C17.5312 11.3078 17.6249 11.2703 17.6249 11.2141C17.7374 10.2016 18.0374 7.40781 20.0249 6.80781C20.6624 6.62031 21.2999 7.07031 21.3749 7.65156C21.5062 8.58906 20.4374 11.0078 20.5312 13.2203C20.5499 13.5766 21.1499 17.3453 19.5562 19.5766C17.9624 21.8078 14.1749 24.0766 10.4062 20.6266C8.45617 18.8453 8.45617 18.1328 6.03742 15.6391C5.54992 15.1516 3.59992 13.0141 3.07492 12.3578C2.38117 11.4766 3.48742 10.3141 4.33117 10.9141C4.72492 11.1953 8.21242 14.1203 8.34367 14.2516C8.60617 14.4766 8.92492 14.1578 8.73742 13.9328C6.59992 11.1203 4.53742 8.58906 3.97492 7.61406C3.41242 6.63906 4.76242 5.58906 5.54992 6.43281C6.09367 6.99531 10.1249 11.7016 10.3124 11.9078C10.4999 12.1141 10.8187 11.8516 10.7062 11.5891C10.5749 11.3453 7.31242 5.66406 6.73117 4.37031C6.22492 3.22656 7.91242 2.15781 8.69992 3.33906C9.33742 4.27656 12.8999 10.2016 13.0312 10.4078C13.1999 10.7078 13.5749 10.5203 13.4249 10.1828C13.3124 9.93906 11.1187 3.93906 10.9499 3.32031C10.6499 2.23281 12.2062 1.33281 12.9374 2.57031C13.9312 4.27656 15.8999 9.48906 17.4937 11.2516Z" fill="#FFCA28"/>
<mask id="mask0_1_31" style="mask-type:luminance" maskUnits="userSpaceOnUse" x="2" y="1" width="20" height="22">
<path d="M17.4937 11.2516C17.5312 11.3078 17.6249 11.2703 17.6249 11.2141C17.7374 10.2016 18.0374 7.40781 20.0249 6.80781C20.6624 6.62031 21.2999 7.07031 21.3749 7.65156C21.5062 8.58906 20.4374 11.0078 20.5312 13.2203C20.5499 13.5766 21.1499 17.3453 19.5562 19.5766C17.9624 21.8078 14.1749 24.0766 10.4062 20.6266C8.45617 18.8453 8.45617 18.1328 6.03742 15.6391C5.54992 15.1516 3.59992 13.0141 3.07492 12.3578C2.38117 11.4766 3.48742 10.3141 4.33117 10.9141C4.72492 11.1953 8.21242 14.1203 8.34367 14.2516C8.60617 14.4766 8.92492 14.1578 8.73742 13.9328C6.59992 11.1203 4.53742 8.58906 3.97492 7.61406C3.41242 6.63906 4.76242 5.58906 5.54992 6.43281C6.09367 6.99531 10.1249 11.7016 10.3124 11.9078C10.4999 12.1141 10.8187 11.8516 10.7062 11.5891C10.5749 11.3453 7.31242 5.66406 6.73117 4.37031C6.22492 3.22656 7.91242 2.15781 8.69992 3.33906C9.33742 4.27656 12.8999 10.2016 13.0312 10.4078C13.1999 10.7078 13.5749 10.5203 13.4249 10.1828C13.3124 9.93906 11.1187 3.93906 10.9499 3.32031C10.6499 2.23281 12.2062 1.33281 12.9374 2.57031C13.9312 4.27656 15.8999 9.48906 17.4937 11.2516Z" fill="white"/>
</mask>
<g mask="url(#mask0_1_31)">
<path d="M17.0997 11.2907C14.7747 13.1844 13.7435 15.8844 15.656 18.6969C15.8247 18.9407 16.181 18.7157 16.031 18.4344C15.2435 17.0282 14.6622 14.4969 17.381 11.8532C17.6997 12.0032 18.0747 11.6844 18.0935 11.4032C18.2997 9.64067 18.506 8.17817 19.8185 7.35317C20.3247 7.03442 20.981 7.25942 21.0185 8.02817C21.0185 8.02817 21.431 8.06567 21.5997 8.08442C21.6935 7.69067 21.881 6.97817 21.881 6.95942C21.881 6.94067 19.6685 6.11567 19.6685 6.11567L17.7372 8.02817L17.0997 11.2907ZM13.3497 10.5219C13.6122 10.3907 13.8372 10.1844 13.7247 9.90317C13.6122 9.60317 11.531 3.94067 11.3997 3.50942C11.1372 2.72192 11.7935 2.10317 12.3747 2.36567C12.6935 2.51567 12.8435 2.00942 12.6747 1.93442C12.506 1.85942 12.1122 1.50317 11.3247 1.89692C9.91847 2.60942 10.7435 4.18442 11.1185 5.10317C11.4935 6.02192 13.3497 10.5219 13.3497 10.5219ZM10.631 11.9282C10.9497 11.7032 11.1935 11.5157 10.9122 11.0657C10.7247 10.7657 7.55597 5.00942 7.23722 4.44692C6.76847 3.64067 7.74347 2.92817 8.28722 3.43442C8.53097 3.65942 8.90597 3.17192 8.71847 2.98442C8.53097 2.79692 7.87472 2.25317 7.04972 2.79692C6.22472 3.34067 6.20597 3.99692 6.31847 4.27817C6.41222 4.55942 10.631 11.9282 10.631 11.9282ZM8.75597 14.2344C8.98097 13.8969 9.13097 13.7282 8.81222 13.2969C8.49347 12.8657 4.70597 7.91567 4.49972 7.63442C3.97472 6.94067 4.74347 6.34067 5.11847 6.54692C5.47472 6.75317 5.68097 6.17192 5.38097 6.02192C5.08097 5.87192 4.59347 5.70317 4.14347 6.02192C3.69347 6.34067 3.43097 6.99692 3.50597 7.37192C3.56222 7.74692 8.75597 14.2344 8.75597 14.2344Z" fill="#FAA700"/>
<path d="M17.3997 21.3029C14.3622 22.7466 12.0935 21.6216 10.631 20.1966C8.96222 18.5654 8.17472 17.0654 7.06847 16.0529C6.69347 15.6966 3.73097 12.5466 3.37472 12.0029C3.09347 11.5529 3.65597 10.7841 4.27472 11.2154C4.66847 11.4779 4.85597 10.9154 4.59347 10.7654C4.33097 10.6154 3.74972 10.2966 3.13097 10.7654C2.51222 11.2154 2.49347 12.0216 2.64347 12.2841C2.79347 12.5466 11.906 23.0091 11.906 23.0091L15.6185 22.9154L17.606 21.6966L17.3997 21.3029Z" fill="#FAA700"/>
</g>
<mask id="mask1_1_31" style="mask-type:luminance" maskUnits="userSpaceOnUse" x="2" y="1" width="20" height="22">
<path d="M17.4937 11.2516C17.5312 11.3078 17.6249 11.2703 17.6249 11.2141C17.7374 10.2016 18.0374 7.40781 20.0249 6.80781C20.6624 6.62031 21.2999 7.07031 21.3749 7.65156C21.5062 8.58906 20.4374 11.0078 20.5312 13.2203C20.5499 13.5766 21.1499 17.3453 19.5562 19.5766C17.9624 21.8078 14.1749 24.0766 10.4062 20.6266C8.45617 18.8453 8.45617 18.1328 6.03742 15.6391C5.54992 15.1516 3.59992 13.0141 3.07492 12.3578C2.38117 11.4766 3.48742 10.3141 4.33117 10.9141C4.72492 11.1953 8.21242 14.1203 8.34367 14.2516C8.60617 14.4766 8.92492 14.1578 8.73742 13.9328C6.59992 11.1203 4.53742 8.58906 3.97492 7.61406C3.41242 6.63906 4.76242 5.58906 5.54992 6.43281C6.09367 6.99531 10.1249 11.7016 10.3124 11.9078C10.4999 12.1141 10.8187 11.8516 10.7062 11.5891C10.5749 11.3453 7.31242 5.66406 6.73117 4.37031C6.22492 3.22656 7.91242 2.15781 8.69992 3.33906C9.33742 4.27656 12.8999 10.2016 13.0312 10.4078C13.1999 10.7078 13.5749 10.5203 13.4249 10.1828C13.3124 9.93906 11.1187 3.93906 10.9499 3.32031C10.6499 2.23281 12.2062 1.33281 12.9374 2.57031C13.9312 4.27656 15.8999 9.48906 17.4937 11.2516Z" fill="white"/>
</mask>
<g mask="url(#mask1_1_31)">
<path d="M20.9062 6.75156C20.9999 6.99531 21.1124 7.42656 20.9999 8.00781C20.5687 10.1828 19.8562 11.4578 20.0812 13.8016C20.4937 18.3016 18.9187 21.7141 13.4999 22.3891C12.9562 22.4641 13.1062 22.8766 13.3874 22.8391C13.5187 22.8203 17.3812 22.1266 17.3812 22.1266C17.3812 22.1266 20.9624 19.0703 20.9624 19.0328C20.9624 18.9953 21.8624 7.33281 21.8624 7.33281L20.9062 6.75156ZM11.5312 1.97031C11.7749 2.00781 12.2999 2.21406 12.6749 2.94531C13.0499 3.67656 14.8874 7.89531 15.1312 8.34531C15.3749 8.79531 16.3687 11.0266 17.1749 11.7016C17.4374 11.9078 17.5687 11.5516 17.5687 11.5516L17.5874 10.9703L13.2374 1.07031L11.7937 1.12656L11.5312 1.97031ZM13.3499 10.5203C12.9937 10.6891 12.7312 10.8391 12.4687 10.4266C12.2999 10.1266 10.4812 7.01406 8.19368 3.37656C8.00618 3.09531 7.57493 2.85156 7.23743 2.98281C6.89993 3.13281 6.82493 2.70156 6.99368 2.60781C7.16243 2.51406 8.21243 1.93281 8.92493 3.13281C9.63743 4.33281 13.3499 10.5203 13.3499 10.5203ZM10.6312 11.9266C10.3499 12.1328 10.0687 12.3953 9.71243 11.9641C9.37493 11.5516 5.53118 6.97656 5.30618 6.69531C5.08118 6.41406 4.61243 6.17031 4.25618 6.39531C4.01243 6.54531 3.78743 6.09531 3.93743 5.98281C4.08743 5.87031 4.93118 5.12031 5.49368 5.75781C6.05618 6.39531 10.6312 11.9266 10.6312 11.9266ZM8.75618 14.2328C8.51243 14.4953 8.24993 14.6453 7.89368 14.3828C7.53743 14.1203 4.34993 11.4391 4.14368 11.2516C3.93743 11.0641 3.33743 10.7828 2.88743 11.2328C2.71868 11.4016 2.41868 11.1203 2.58743 10.9516C2.75618 10.7641 3.67493 9.82656 4.40618 10.4453C5.13743 11.0641 8.75618 14.2328 8.75618 14.2328Z" fill="#B55E19"/>
</g>
<path d="M1.98749 15.2437C2.56874 16.9687 3.44999 18.0374 4.89374 19.0124C5.15624 19.1999 5.00624 19.5749 4.70624 19.4437C3.35624 18.8999 1.85624 17.6999 1.49999 15.3187C1.44374 14.9999 1.89374 14.9437 1.98749 15.2437ZM3.11249 14.2124C3.69374 15.9374 4.57499 17.0062 6.01874 17.9812C6.28124 18.1687 6.13124 18.5437 5.83124 18.4124C4.48124 17.8687 2.98124 16.6687 2.62499 14.2874C2.58749 13.9687 3.01874 13.9124 3.11249 14.2124ZM17.5312 6.48743C17.0812 4.72493 16.2562 3.59994 14.8875 2.54994C14.625 2.36244 14.8125 1.98744 15.1125 2.11869C16.425 2.73744 17.85 4.04994 18.0375 6.44994C18.0562 6.76869 17.6062 6.80618 17.5312 6.48743ZM18.75 5.58743C18.3 3.82493 17.475 2.69994 16.1062 1.64994C15.8437 1.46244 16.0312 1.08744 16.3312 1.21869C17.6437 1.83744 19.0687 3.14994 19.2562 5.54994C19.275 5.84994 18.8437 5.88743 18.75 5.58743Z" fill="#B0BEC5"/>
</svg>
